<?xml version="1.0" standalone="no"?>
<!DOCTYPE svg PUBLIC "-//W3C//DTD SVG 20010904//EN"
 "http://www.w3.org/TR/2001/REC-SVG-20010904/DTD/svg10.dtd">
<svg version="1.0" xmlns="http://www.w3.org/2000/svg"
 width="500.000000pt" height="500.000000pt" viewBox="0 0 500.000000 500.000000"
 preserveAspectRatio="xMidYMid meet">

<g transform="translate(0.000000,500.000000) scale(0.100000,-0.100000)"
fill="#000000" stroke="none">
<path d="M2245 4436 c-40 -19 -611 -593 -625 -629 -16 -44 -12 -114 9 -155 24
-46 1984 -2004 2028 -2026 18 -9 56 -16 86 -16 43 0 63 6 98 29 58 39 572 557
593 598 18 36 21 118 5 160 -5 15 -146 164 -312 331 l-302 302 252 253 c138
138 259 267 268 286 23 47 22 118 -3 167 -12 22 -145 163 -309 325 -239 239
-295 289 -328 298 -106 29 -121 20 -418 -277 l-257 -257 -298 297 c-163 163
-311 303 -329 312 -39 19 -117 20 -158 2z m738 -1056 c38 -10 56 -10 95 0 42
12 72 38 310 274 l262 261 132 -133 133 -132 -256 -257 c-141 -142 -261 -267
-266 -278 -20 -40 -23 -91 -8 -140 13 -44 44 -79 317 -353 l303 -303 -135
-129 -135 -129 -837 837 -838 837 132 132 133 133 305 -304 c278 -276 309
-304 353 -316z"/>
<path d="M1159 3361 c-58 -39 -572 -557 -593 -598 -18 -36 -21 -118 -6 -160 6
-15 147 -164 313 -330 l302 -303 -261 -262 c-238 -240 -262 -267 -272 -310
-14 -53 -7 -100 19 -143 10 -16 148 -159 306 -316 261 -260 292 -287 336 -299
38 -10 56 -10 95 0 42 12 72 38 310 274 l262 261 298 -297 c163 -163 311 -303
329 -312 37 -18 108 -21 150 -6 37 14 611 586 629 627 20 46 17 117 -5 161
-26 48 -1997 2018 -2034 2032 -16 5 -52 10 -81 10 -41 0 -62 -6 -97 -29z
m1649 -2228 l-133 -133 -305 303 c-255 254 -312 305 -346 315 -105 30 -119 21
-417 -276 l-257 -257 -133 133 -132 132 252 252 c138 139 259 268 268 287 22
44 22 118 0 162 -9 19 -150 168 -313 332 l-297 298 134 130 135 130 838 -838
838 -838 -132 -132z"/>
</g>
</svg>
